<svg width="35" height="35" viewBox="0 0 35 35" fill="none" xmlns="http://www.w3.org/2000/svg">
<rect width="35" height="35" rx="8" fill="#F14458"/>
<path d="M18.9175 24.7606L18.7615 25.763C18.6509 26.4683 18.4818 27.2232 18.2542 28.0276C18.033 28.832 17.8021 29.59 17.5615 30.3015C17.3209 31.0131 17.1225 31.5792 16.9664 32H15.2104C15.2949 31.604 15.4055 31.0812 15.5421 30.4315C15.6787 29.7818 15.8152 29.0547 15.9518 28.2503C16.0949 27.4522 16.212 26.6354 16.303 25.8001L16.4201 24.7606H18.9175ZM17.5127 16.9272C17.0314 16.9272 16.6184 16.7632 16.2738 16.4353C15.9291 16.1073 15.7567 15.7144 15.7567 15.2565C15.7567 14.7987 15.9291 14.4058 16.2738 14.0778C16.6184 13.7499 17.0314 13.5859 17.5127 13.5859C17.994 13.5859 18.407 13.7499 18.7517 14.0778C19.0964 14.4058 19.2688 14.7987 19.2688 15.2565C19.2688 15.5597 19.1875 15.8382 19.0249 16.0918C18.8688 16.3456 18.6574 16.5497 18.3907 16.7044C18.1306 16.8529 17.8379 16.9272 17.5127 16.9272Z" fill="#161721"/>
<path d="M17.5263 23.7478H16.3166C16.3166 22.7145 16.089 21.9906 15.6337 21.576C15.1784 21.1676 14.4175 20.9634 13.3509 20.9634H10.2291C9.33154 20.9634 8.55434 20.8799 7.89744 20.7129C7.24057 20.552 6.69751 20.2859 6.26826 19.9147C5.83901 19.5434 5.52031 19.0484 5.31221 18.4296C5.10408 17.8109 5 17.0467 5 16.1372H6.91214C6.91214 16.8549 7.03244 17.418 7.27308 17.8264C7.50722 18.2409 7.86819 18.5317 8.35596 18.6988C8.84377 18.8721 9.46812 18.9587 10.2291 18.9587H14.1313C14.6386 18.9587 15.1004 19.0206 15.5166 19.1443C15.9329 19.2743 16.2906 19.5094 16.5898 19.8497C16.8889 20.19 17.1198 20.6726 17.2824 21.2976C17.445 21.9287 17.5263 22.7455 17.5263 23.7478ZM29.9746 16.1372C29.9746 17.0467 29.8705 17.8109 29.6624 18.4296C29.4543 19.0484 29.1356 19.5434 28.7063 19.9147C28.2771 20.2859 27.734 20.552 27.0771 20.7129C26.4202 20.8799 25.643 20.9634 24.7455 20.9634H21.6237C20.5571 20.9634 19.7961 21.1676 19.3409 21.576C18.8856 21.9906 18.658 22.7145 18.658 23.7478H17.4483C17.4483 22.7455 17.5296 21.9287 17.6922 21.2976C17.8548 20.6726 18.0856 20.19 18.3848 19.8497C18.684 19.5094 19.0417 19.2743 19.458 19.1443C19.8742 19.0206 20.336 18.9587 20.8433 18.9587H24.7455C25.5065 18.9587 26.1308 18.8721 26.6186 18.6988C27.1129 18.5317 27.4771 18.2409 27.7113 17.8264C27.9454 17.418 28.0625 16.8549 28.0625 16.1372H29.9746ZM18.658 23.7478H16.3166V21.5574H18.658V23.7478Z" fill="#161721"/>
<path d="M17.4737 6H18.6834C18.6834 7.03332 18.911 7.75417 19.3663 8.16253C19.8216 8.57712 20.5825 8.78438 21.6491 8.78438H24.771C25.6685 8.78438 26.4457 8.86483 27.1026 9.0257C27.7595 9.19276 28.3025 9.46193 28.7318 9.83317C29.161 10.2044 29.4797 10.6994 29.6878 11.3182C29.896 11.9369 30 12.7011 30 13.6107H28.0879C28.0879 12.8929 27.9708 12.3268 27.7367 11.9122C27.5025 11.5038 27.1383 11.213 26.644 11.0397C26.1563 10.8727 25.5319 10.7892 24.771 10.7892H20.8687C20.3614 10.7892 19.8996 10.7242 19.4834 10.5943C19.0671 10.4705 18.7094 10.2384 18.4102 9.89813C18.1111 9.55782 17.8802 9.0721 17.7176 8.44099C17.555 7.81604 17.4737 7.00238 17.4737 6ZM5.02545 13.6107C5.02545 12.7011 5.1295 11.9369 5.33763 11.3182C5.54576 10.6994 5.86444 10.2044 6.29369 9.83317C6.72294 9.46193 7.266 9.19276 7.92289 9.0257C8.57976 8.86483 9.35696 8.78438 10.2545 8.78438H13.3763C14.4429 8.78438 15.2039 8.57712 15.6592 8.16253C16.1144 7.75417 16.342 7.03332 16.342 6H17.5517C17.5517 7.00238 17.4704 7.81604 17.3078 8.44099C17.1453 9.0721 16.9144 9.55782 16.6152 9.89813C16.316 10.2384 15.9583 10.4705 15.5421 10.5943C15.1258 10.7242 14.6641 10.7892 14.1568 10.7892H10.2545C9.49355 10.7892 8.86919 10.8727 8.38142 11.0397C7.89362 11.213 7.53265 11.5038 7.29853 11.9122C7.05789 12.3268 6.93756 12.8929 6.93756 13.6107H5.02545ZM16.342 6H18.6834V8.19038H16.342V6Z" fill="#161721"/>
</svg>
